<?xml version="1.0" encoding="UTF-8" standalone="no"?>
<svg
   width="600"
   height="600"
   viewBox="0 0 600 600"
   version="1.1"
   id="svg88"
   sodipodi:docname="topography.svg"
   inkscape:version="1.2.1 (9c6d41e, 2022-07-14)"
   xmlns:inkscape="http://www.inkscape.org/namespaces/inkscape"
   xmlns:sodipodi="http://sodipodi.sourceforge.net/DTD/sodipodi-0.dtd"
   xmlns="http://www.w3.org/2000/svg"
   xmlns:svg="http://www.w3.org/2000/svg">
  <defs
     id="defs92" />
  <sodipodi:namedview
     id="namedview90"
     pagecolor="#ffffff"
     bordercolor="#000000"
     borderopacity="0.25"
     inkscape:showpageshadow="2"
     inkscape:pageopacity="0.0"
     inkscape:pagecheckerboard="0"
     inkscape:deskcolor="#d1d1d1"
     showgrid="false"
     inkscape:zoom="1.5354498"
     inkscape:cx="306.09923"
     inkscape:cy="236.41281"
     inkscape:window-width="1512"
     inkscape:window-height="916"
     inkscape:window-x="0"
     inkscape:window-y="38"
     inkscape:window-maximized="1"
     inkscape:current-layer="svg88" />
  <path
     fill="#000000"
     d="m 600,325.1 c -29.42053,12.15888 -49.23431,40.33526 -80.5286,49.58903 -26.06698,16.73678 -57.70752,20.33572 -84.06414,35.00134 -29.86555,24.88864 -45.35595,56.88503 -64.29624,88.59353 -28.14741,22.3199 -24.64022,58.34013 -21.83089,90.11311 3.44263,31.65999 -1.34763,-45.99765 -0.62509,-29.63636 -8.97894,-39.42128 31.48561,-58.19078 40.76757,-91.90526 17.46236,-26.87986 36.0345,-57.25049 69.28732,-66.41642 29.12864,-7.18479 55.19122,-21.62077 81.54056,-35.35409 18.89854,-15.91893 51.18583,-24.68774 59.74951,-50.18194 0,-18.13098 0,-36.26196 0,-54.39294 -23.04355,30.04933 -55.4813,59.76255 -93.46587,66.00379 -27.92526,15.53965 -58.34044,22.16749 -88.00362,32.11729 -23.98104,17.83374 -46.6048,36.87392 -72.31748,52.22208 -13.4276,24.70805 -9.55541,55.74581 -30.88247,79.32017 -19.6201,32.58282 -3.49014,72.39788 -16.00243,106.56849 10.60413,-38.90624 -5.6657,-85.56074 22.72355,-118.75292 21.03075,-25.28199 6.09873,-72.33746 44.44564,-80.89247 26.69106,-13.62694 42.99215,-45.20172 75.37335,-46.93367 31.99319,-5.67439 58.72708,-25.94431 91.16118,-31.43505 C 557.618,303.78005 579.28534,283.54932 600,263.29125 c 0,20.60292 0,41.20583 0,61.80875 z m 0,-116.23 c -25.65914,19.99677 -76.3657,-1.93875 -91.8499,12.93076 14.05807,7.3794 37.58904,31.62122 6.77518,33.26046 -21.87095,-8.60622 -18.29129,-53.75775 -51.37636,-36.93807 -31.56478,0.82988 -42.20927,36.82257 -66.96161,50.49732 -15.0314,7.61218 -33.07972,33.5744 -3.77997,32.94026 26.21913,21.73835 -15.03952,39.37051 -11.49025,63.66388 -15.84608,28.09386 -58.92585,32.91882 -57.52261,71.92901 -5.69722,38.20875 -33.1915,67.88385 -46.6057,103.41552 -6.83315,42.82747 -58.14517,57.32583 -91.12023,32.98316 -22.35788,-35.5204 -57.99401,-6.64602 -64.50067,24.76737 2.64907,-32.18171 43.58843,-60.80583 64.77132,-25.93611 33.38024,26.17825 87.37431,7.85626 90.84801,-36.35014 18.61311,-36.04477 43.0017,-70.221 48.77672,-111.37326 3.04251,-40.67826 61.09957,-34.24398 58.51626,-77.61047 3.73718,-17.31565 35.26771,-36.42248 3.18763,-44.49048 -37.00521,-8.93639 15.36624,-36.53768 25.81714,-49.5593 16.90441,-23.53273 46.97196,-47.7523 77.2659,-33.22634 5.60971,15.22446 15.50469,45.30243 38.15866,27.7052 4.67183,-14.16985 -43.98094,-27.94458 -11.025,-33.84952 C 545.05359,220.00631 573.65263,217.696 600,208.87 Z m 0,-100.94 c -7.58064,33.64405 -41.44688,51.73189 -73.58356,42.89248 -39.75969,2.40323 -78.08354,18.94718 -118.12939,15.359 -39.257,5.39859 -43.06789,51.96638 -76.52523,65.8162 -27.23482,22.78378 -24.98166,68.06996 -61.2412,81.7355 -25.75072,12.6661 -57.58993,11.24617 -79.20586,32.43216 -20.97419,18.40034 -41.58512,37.44229 -66.52168,50.42836 -30.654252,16.88989 -29.793545,53.43734 -44.480402,80.11046 -27.000201,23.16052 -15.367765,62.22437 -38.847949,87.58282 -8.840222,10.86297 -30.715665,51.94891 -14.736947,19.19566 23.241089,-23.04578 29.17732,-52.9829 36.603896,-82.79156 19.252507,-23.79288 26.161844,-52.5547 37.271112,-80.28884 19.40433,-29.3204 56.27809,-40.44505 80.13822,-65.931 19.68708,-23.82504 50.43424,-29.48234 78.55801,-37.14351 28.92585,-6.17361 42.33685,-34.06173 52.43801,-58.87548 14.38215,-34.60982 53.994,-44.81301 68.63086,-79.92653 30.73026,-24.22361 76.81052,-7.59373 112.91436,-24.27509 32.02385,-9.05448 79.72096,8.73144 97.80261,-28.3508 1.26582,-6.78035 6.10066,-11.89115 8.91514,-17.96983 z m 0,450.21 c -6.57042,-24.71816 -2.80939,-57.70341 -21.74993,-74.5506 -3.69084,-14.60373 25.131,-40.76762 21.74762,-42.4543 -5.48476,18.9669 -36.14039,38.87598 -10.22528,54.07323 1.8613,21.22069 10.65675,41.44736 10.22759,62.93167 z m 0,-62.16 c -14.37975,-8.25438 7.22342,-46.21486 -4.89,-16.11 -0.46027,6.01105 5.46078,10.08649 4.89,16.11 z m 0,-85.09 c -20.85386,12.63048 -59.1199,30.86076 -73.51016,1.04485 15.31331,-21.38785 43.83332,-31.73428 65.05595,-47.78272 10.44728,-5.68337 -22.10835,16.13444 -29.79412,20.69398 -18.17246,7.37655 -54.18343,35.23476 -16.29469,41.19562 C 564.03787,429.75076 588.62564,416.94691 600,410.89 Z m 0,-41.37 c -18.57682,11.54362 -57.14085,25.61219 -56.05396,45.63092 16.99622,14.12822 63.06893,-24.01145 54.00198,-17.90459 -9.80498,16.5719 -53.90986,32.48268 -55.93312,10.32873 C 558.18817,390.84578 578.22262,377.70875 600,369.52 Z m 0,-154.6 c -22.8766,9.62225 -66.75297,8.6063 -45.57137,46.15421 9.51,36.03038 41.99326,7.09636 45.27721,-16.41343 0.47424,29.38098 -47.72178,53.23336 -46.32944,11.00446 C 532.29847,217.712 579.67064,224.59006 600,214.92 Z M 0,292 c 39.765479,-38.99225 30.473955,-106.73491 75.858927,-141.40613 8.492487,-20.46533 29.985313,-38.4028 41.741133,-47.8192 -0.60948,-31.593882 38.6164,-54.271699 67.24524,-47.031705 35.18867,8.808996 68.63017,-4.805131 103.81513,-1.745368 32.9039,4.910245 23.86629,-45.4352879 34.60059,-49.0252899 -5.70468,21.1302039 -8.61992,60.5678679 -40.73612,51.1612989 -35.17254,-2.858029 -70.12363,10.331419 -105.16197,0.309461 -33.89089,-2.20171 -59.58084,26.5052 -61.68572,58.039463 -30.294531,3.97183 -31.914015,42.67864 -56.807581,55.89079 C 34.393999,209.60724 34.32746,261.47636 0,294.98 v -1.70164 z m 0,78 c 18.95237,-1.32052 -9.2061248,38.61469 4.65,12.51 -11.0272137,-30.81881 -7.5515989,-64.57821 23.482329,-81.68408 21.246146,-31.17394 15.579964,-73.00439 36.952969,-104.35034 23.705248,-22.35503 41.632772,-50.04641 69.438522,-67.05678 11.86744,-23.94911 25.80225,-54.925257 60.36743,-43.898705 25.72861,9.7275 51.00059,1.885651 77.29853,0.617719 27.10581,-1.728142 60.90425,-4.847722 76.09089,-30.188629 8.6947,-10.440901 3.51918,-52.6441958 4.98558,-46.231679 11.9326,35.917973 -15.81863,73.615453 -53.33397,74.656809 -37.17286,2.209314 -73.7989,12.654733 -110.26305,1.509041 C 145.73933,74.446015 151.54346,128.53602 119.68269,140.72681 94.912355,165.85427 65.420639,190.01746 53.141051,224.99537 43.767606,256.4595 43.863216,295.28811 14.28,316.41 -9.5444911,321.51256 2.6426447,350.3913 0,368.10432 v 1.70164 z M 0,196.3 C 23.730467,174.92733 45.781442,149.90313 65.727045,125.91778 69.865842,92.352137 81.094422,62.715282 100.59258,35.487218 105.03529,23.155725 120.36748,-17.171724 109.64227,16.551674 98.061728,48.808946 71.280143,75.078389 70.654945,110.90118 69.25373,142.90977 35.114478,152.40253 21.622431,177.83698 15.644735,185.235 8.7167022,192.20159 0,196.3 Z m 0,361.83 c 11.770607,22.80674 47.437358,-16.5301 45.178841,-41.0288 0.829797,-34.28379 40.750257,-49.62533 39.91524,-84.30982 -4.971665,-23.55109 -39.336109,7.80786 -57.895904,0.133 -14.395595,0.678 -32.808607,2.48581 -7.066758,0.0404 20.828889,1.09483 53.373148,-13.83379 66.277661,-6.57897 2.506447,33.66937 -29.291271,52.74406 -37.977524,81.72697 -2.527573,22.45025 -19.3335,68.98996 -46.7735051,55.08256 z m 0,-62.16 c 11.619823,11.0537 -3.6951448,70.52891 26.450869,41.2313 C 43.249616,509.01724 41.164491,470.59576 71.794531,451.28999 78.957118,418.16555 37.115084,450.12538 19.72716,445.45556 2.297261,442.13404 -6.1024732,479.52522 3.9544674,451.55366 23.755525,440.21083 53.404004,437.78394 74.2391,437.78432 71.779966,468.16782 34.77546,484.36637 36.60124,517.98504 36.366076,540.69989 0.86312223,563.61294 5.06582,528.00684 4.7378584,517.28292 6.120316,505.44933 0,495.97 Z M 379.27,0 c 18.61608,35.184601 3.4195,83.204628 -34.4698,98.068736 -33.89137,13.285134 -71.18302,12.112324 -106.64842,18.598614 -25.95964,1.80586 -69.51031,-20.69908 -71.67483,21.79314 -6.69572,22.38749 -46.07858,16.85913 -56.03062,41.93096 -13.266988,8.89633 -45.878355,47.65335 -22.475268,50.50251 37.957328,-12.51086 70.538918,-37.97202 109.009938,-48.76278 42.06477,-4.4687 75.70147,41.56135 68.71976,80.58079 -7.53514,14.22971 -38.0017,59.32914 -1.33411,43.25503 35.45286,-17.26745 30.06457,-67.10249 62.80683,-86.35591 30.16323,-20.33858 42.75251,-66.70197 85.40961,-62.81016 37.84353,1.76424 72.12556,-17.11947 109.7788,-16.39554 36.22419,7.45935 68.54098,-19.19049 69.48999,-56.036125 C 586.05505,59.751987 590.20672,18.419359 593.5,3 c -10.66401,39.959763 11.82629,87.281356 -16.76992,122.05194 -20.98719,26.73284 -55.70711,10.99279 -83.67455,19.20405 -32.66792,7.16063 -65.44969,16.18042 -99.15689,14.11752 -32.12988,12.49092 -42.74391,51.98023 -75.17854,65.74423 -21.78158,23.50386 -19.36413,64.36407 -50.6383,79.88222 -15.13794,19.41746 -37.69613,-4.63798 -15.871,-17.33506 34.3025,-38.85314 -5.37255,-112.22218 -56.51783,-102.84977 -32.0886,12.07056 -64.68553,22.9334 -92.90299,42.8731 -18.459311,14.70949 -34.976041,1.00593 -18.508321,-18.34584 19.187521,-29.77426 47.632991,-49.49897 77.249111,-60.79701 7.2643,-22.17531 13.75843,-45.60992 43.51025,-35.16321 38.06167,10.28966 75.22758,-5.72632 113.34829,-7.26715 39.2879,-3.98365 74.83991,-40.411033 66.84471,-81.390367 C 384.23403,15.609746 382.173,7.6385456 379.27,0 Z m 13.68,0 c 23.88476,47.21709 -17.28069,103.9313 -65.79698,111.94732 -36.2586,1.52061 -70.94502,19.65413 -106.64221,15.65401 -23.94526,-11.40683 -43.69861,2.61196 -45.80788,27.30364 -23.91928,14.57622 -70.19607,15.81461 -69.71535,52.06735 35.90281,-2.64454 65.52667,-39.48637 104.30524,-36.65337 36.09283,4.85089 68.5257,35.22219 68.84074,72.84765 3.37145,14.49702 -27.47295,62.23915 -0.14676,39.72219 15.03327,-30.36033 17.36589,-68.1067 52.8029,-84.06925 24.74815,-23.58678 44.21277,-55.05946 83.42022,-49.04615 43.96333,-2.89497 86.19533,-21.176 130.70596,-17.44855 40.89517,-8.11417 36.46837,-58.735089 23.50396,-87.937166 -3.74284,-13.476118 2.1478,-61.130997 -1.28769,-25.015763 0.46179,30.141002 22.07237,60.749382 5.85785,90.058089 -12.11159,38.74927 -60.30622,16.54104 -88.87788,29.30891 -33.46861,7.23674 -67.33939,13.10388 -101.56634,15.07437 -31.80794,18.81119 -53.12531,52.54183 -82.50805,73.62057 -10.47205,17.21411 -11.80168,68.22081 -35.8969,60.0183 13.12831,-26.1675 19.66761,-57.53557 0.21297,-83.24731 -19.78368,-26.32827 -58.589,-43.78942 -89.39414,-25.50384 -21.48153,4.62787 -56.51431,41.10921 -72.46645,22.03832 9.50003,-34.25309 57.23921,-30.76288 73.08456,-51.77631 1.01498,-39.23569 43.00467,-19.93966 66.01073,-22.4636 29.70571,-7.64225 60.32725,-9.91706 90.11717,-16.50515 C 372.26523,98.846327 409.87824,57.055882 396.05618,13.020848 395.02198,8.6802775 393.88318,4.3643878 392.95,0 Z M 506.7,0 C 490.17325,23.057355 458.80676,23.842847 436.13613,10.261951 393.90205,-4.3367284 424.62576,56.21782 397.76999,71.771553 367.83128,105.44463 325.84748,127.34276 281.17514,133.20997 c -26.2862,7.40095 -52.75369,6.03201 -79.40021,2.82374 -25.39002,21.52313 33.23849,27.46539 47.2364,36.29099 26.93392,4.92877 25.47856,64.57064 57.17188,34.84618 28.54547,-12.40771 37.2486,-41.72641 59.69238,-60.29475 33.20068,-2.52401 68.11467,-3.40928 99.47256,-18.59693 27.39716,-15.84883 81.21004,-12.37759 84.42677,-51.966953 -1.09405,-18.456564 -7.82787,-71.0595722 -2.81404,-69.2100334 -7.81004,31.3792594 20.40355,74.1292554 -11.16625,96.0643564 -32.33441,15.10186 -67.47197,23.62125 -100.83609,36.50588 -27.76957,14.70735 -68.4806,-8.67892 -85.47739,25.51979 -12.26788,24.81149 -37.36931,43.23238 -63.42221,51.21507 -16.48294,-27.43375 -43.9693,-59.05606 -82.65966,-56.91037 -27.40903,-16.68098 6.27448,-35.09984 24.30848,-21.76207 40.44037,-0.24416 82.68251,-7.97382 118.65503,-26.8881 C 374.65108,91.503311 416.88566,69.724395 410.16621,28.951108 407.56077,-11.32811 448.56039,18.040546 469.18517,18.949432 482.77864,16.875819 498.24845,11.358017 506.7,0 Z M 324.54,600 c 2.06075,-33.98462 -14.3476,-74.78676 12.36682,-102.99545 36.85174,-8.09244 6.2391,-61.07313 41.11503,-67.71025 26.38073,-22.15501 41.86958,-59.31585 82.05164,-59.18297 29.66349,-17.79338 59.77174,-25.22604 90.66756,-38.38005 15.60514,-9.95584 38.35942,-30.95182 48.64582,-36.25279 -25.84802,19.11192 -50.44975,52.53459 -86.11296,49.02964 -27.33751,17.73617 -57.51494,30.67991 -88.88488,38.20746 -20.28748,20.2644 -35.82083,45.46819 -60.84979,59.38645 -2.25383,25.32807 -4.94796,50.03472 -30.20979,62.14579 C 312.47329,532.59738 331.7815,568.66085 324.54,600 Z m -13.4,0 c 9.18722,-37.03209 -9.11244,-80.22293 16.96228,-112.92282 30.41934,-23.98514 10.33075,-73.50555 52.9273,-85.63202 26.90327,-24.45372 55.14506,-43.74735 92.75876,-49.20388 25.84222,-20.65464 64.91452,-12.56298 88.31669,-39.21316 9.76977,-6.23594 31.8245,-24.63414 35.02759,-30.32413 -20.80908,21.19638 -46.98735,48.01961 -76.25914,51.32445 -36.47471,13.31768 -74.13424,26.02539 -108.93616,41.24078 -18.4502,29.63539 -65.64713,32.92232 -62.63839,72.823 -3.37803,33.10576 -41.50574,50.40293 -34.74546,87.84086 -2.48733,20.81199 4.63278,45.38683 -3.41347,64.06692 z m 25.08,0 c 3.21452,-29.04875 -18.06993,-64.48634 6.32933,-87.98496 21.51651,-16.86648 32.30699,-46.6493 33.35507,-68.37983 30.4693,-11.74814 40.96712,-49.67655 73.37365,-56.58095 33.09513,-9.39235 63.90993,-23.07109 95.12101,-35.91906 15.95793,-10.66326 42.83902,-38.53692 51.48583,-39.48557 -28.20921,16.85212 -48.20552,48.53174 -82.591,52.42852 -29.57292,21.01173 -74.42054,15.33674 -96.44047,46.2795 -16.47578,24.97727 -52.23842,29.19499 -45.02766,63.05359 -11.25413,30.95454 -53.51697,47.85153 -38.25696,86.32548 2.04955,13.27947 4.87616,26.80667 2.6512,40.26328 z M 95.9,600 c -8.785259,-32.66378 18.43849,-59.95362 24.9391,-89.58831 32.26296,-16.37328 59.86561,22.61418 88.96457,31.25972 36.94783,16.85854 47.32665,-41.39015 16.38669,-53.86013 -26.61832,-14.04526 -65.07274,-0.94211 -82.78766,-32.58627 -21.89532,-37.85522 35.56952,-56.11088 56.21111,-78.17085 28.84654,-35.22984 85.21147,-21.36269 113.48258,-57.40904 12.32846,-29.05204 26.1208,-62.62756 58.14547,-73.87878 21.3092,-28.85525 43.21757,-59.60652 83.86303,-57.6238 38.77217,-10.10237 77.96234,-18.17016 117.97557,-20.03913 12.62696,0.33032 38.76251,-18.26381 15.57254,-1.69276 -33.50164,7.69311 -68.54531,6.66243 -102.09732,15.90797 -35.24888,11.88799 -82.94897,6.69174 -99.3924,48.0767 -20.70072,25.30485 -55.86506,36.60673 -64.51364,72.56297 -7.36033,31.08843 -40.04076,42.21517 -67.73249,48.1313 -28.87516,3.83529 -50.41607,22.73315 -71.15952,41.2321 -33.20071,13.51213 -65.87675,59.39333 -18.76727,78.73087 26.12189,14.78599 69.68765,-1.03871 80.01785,36.99971 12.16758,40.07987 -36.66252,49.06172 -59.06141,23.07309 -17.77493,-15.16981 -70.20333,-41.91223 -69.77089,-0.0166 C 103.85915,550.8153 94.637041,574.81352 95.9,600 Z m 8.05,0 c -3.12047,-29.19765 24.55967,-48.72326 28.63086,-74.87133 30.79383,-9.59362 51.99412,33.70315 82.61404,35.39849 44.18546,8.3759 49.90156,-45.51286 65.21238,-74.05986 15.29302,-27.57495 -6.61444,-64.5371 -37.09219,-40.72936 -24.57356,19.92586 -67.85511,21.08636 -87.98908,-4.79803 10.49248,-31.94611 48.91571,-54.34351 76.28904,-74.60911 33.4328,-12.63279 79.37541,-10.86309 97.73775,-48.00871 10.77672,-36.69134 43.76344,-58.877 67.76271,-83.3814 15.36564,-35.564 54.26678,-36.96905 86.91039,-38.03299 27.30594,-10.77506 56.27214,-16.09439 85.60144,-12.3903 13.31268,2.33055 44.87669,-9.41551 15.04116,-0.21451 -33.38239,0.7543 -66.72596,-0.86502 -98.2178,12.5734 -32.52851,5.41578 -73.81226,0.92392 -88.16063,38.88388 -20.25576,26.0912 -53.10864,39.72055 -63.6273,74.09697 -10.90819,28.76074 -38.45055,43.41896 -67.31065,47.33973 -27.28735,5.67782 -55.17988,15.77598 -72.94959,38.40037 -18.20202,12.44462 -59.59865,55.80516 -14.84357,59.457 30.75011,17.14779 57.87079,-12.88442 86.72026,-17.6825 38.60484,10.11553 10.52419,63.23609 -0.89438,86.87825 -8.19507,44.31064 -58.18507,47.23915 -86.1141,19.15886 C 158.7245,526.5691 131.82299,512.49706 124.82816,547.07753 115.58743,564.27104 104.78328,579.67793 103.95,600 Z m 10.5,0 c 0.0518,-26.0541 25.37051,-79.44502 55.2109,-49.61477 24.70785,22.42328 74.2191,36.90255 93.21103,0.35859 8.90773,-30.01141 30.95878,-54.17262 33.13082,-86.37624 14.23322,-42.26518 -33.90079,-46.69215 -59.80513,-26.76804 -20.09891,18.99672 -85.43554,6.62051 -49.92831,-25.38302 24.12351,-29.40328 58.55016,-45.08767 95.81186,-49.40048 49.87092,-10.40978 62.51679,-66.34711 96.3734,-96.85772 27.93793,-16.67001 38.87273,-60.58339 77.04987,-59.07561 39.34522,3.51171 78.39439,-6.47165 117.74532,-5.18436 10.63818,-1.52173 36.3771,-8.12791 11.96079,-1.00442 -35.12396,3.34901 -70.50119,4.94307 -105.57341,7.82341 -33.17429,-4.955 -63.96745,7.59287 -78.18684,38.38065 -21.65469,18.66769 -42.15277,38.66738 -56.0323,63.98455 -16.87904,27.66766 -42.50512,52.66222 -76.40681,55.59135 -35.45151,4.64479 -65.99295,24.56221 -87.44333,52.43936 -20.16784,38.91033 48.03751,27.51546 65.07473,12.34156 36.51354,-25.689 67.02768,15.64998 46.5851,49.37447 -12.62907,29.26955 -20.38909,65.32091 -45.18258,87.23949 C 211.92028,590.0584 178.23405,552.35588 148.41933,540.60191 128.57538,552.51222 117.33894,577.76858 114.45,600 Z m -29.65,0 c -4.656087,-31.17068 15.88505,-56.42331 24.30715,-82.71426 -1.43977,-27.54206 40.49058,-39.91676 20.58461,-66.74369 -19.70905,-26.80115 12.11085,-42.26023 30.14085,-55.85482 27.53192,-23.36082 55.96068,-48.80337 92.98583,-54.82481 38.2445,-5.01327 63.61261,-34.51587 75.02416,-69.569 17.149,-32.95434 59.76991,-38.5633 69.17664,-78.08987 26.59131,-16.0639 62.5502,-9.87943 92.09882,-22.47992 28.12376,-3.53106 56.08645,-14.65417 84.78053,-8.96863 14.56044,-1.62421 35.79311,-21.27549 12.34354,-3.03767 -31.25209,5.08493 -63.0358,3.12715 -93.61581,11.74118 -28.62702,12.42381 -60.56595,8.91712 -89.04352,20.27786 -22.19431,15.58085 -22.32577,45.98953 -51.94794,55.83319 -35.22614,18.17393 -27.60281,69.23476 -66.33387,83.56366 -28.36218,14.09533 -62.36172,14.5973 -87.41176,35.94555 -24.67589,17.28329 -45.65327,39.202 -70.11939,56.75545 -6.07523,25.67077 23.72267,59.28042 -10.5832,73.62161 -3.09508,30.50945 -26.300112,53.47538 -29.788356,82.79923 C 86.805389,585.52812 86.469346,592.86717 84.8,600 Z m 282.54,0 c -6.3386,-24.9838 -10.83637,-57.04905 4.71481,-78.71166 15.48625,-29.82527 37.74816,-53.93943 59.52568,-78.34409 9.8294,-31.64587 42.84286,-29.26321 68.01659,-39.04874 36.0226,-15.49731 67.12059,-39.85904 100.30802,-60.21174 -35.74757,23.85341 -70.63296,51.37141 -111.7497,65.13624 -38.93707,-1.3593 -52.10128,32.37798 -74.86148,55.64746 -19.72335,25.50273 -44.80898,50.30573 -49.94431,82.97244 -1.01848,17.57287 0.29726,35.34825 3.99039,52.56009 z m -76.59,0 c -1.10785,-18.26386 15.49411,-58.41642 -1.8669,-62.34876 -13.34104,27.42573 -28.82209,66.60881 -67.79055,55.44663 -31.31376,-5.15638 -72.53142,-48.0465 -88.59194,0.88098 -4.67499,-18.28591 41.4567,-42.74528 57.91939,-12.88885 28.02588,15.98591 75.60819,16.45561 84.71488,-21.88926 1.52167,-16.64143 25.10281,-38.13573 22.85261,-8.11282 C 297.79674,567.5998 296.29687,584.33629 290.75,600 Z m -149.25,0 c 5.68497,-41.87132 45.24167,-10.36229 67.64667,-2.82054 5.27483,5.0501 -34.8673,-12.30398 -46.57518,-19.21116 C 149.57609,574.68283 144.48315,590.58696 141.5,600 Z m 112.89,0 c 14.90061,-1.56718 35.54161,-49.44208 30.55722,-10.95255 -8.6086,35.37788 8.63104,-41.72853 -9.69722,-6.09745 -5.18875,7.11265 -10.63289,17.45185 -20.86,17.05 z m -183.72,0 c -0.877728,-32.22069 20.60834,-57.69637 29.232465,-85.60567 1.195655,-18.34702 33.400465,-63.29701 2.647285,-61.93216 -3.803501,32.16211 -30.391447,51.11277 -36.41954,82.35907 -0.897789,18.00891 -34.633353,61.78708 -30.126891,57.59806 16.638621,-26.55902 30.34734,-56.26173 39.459994,-85.48032 20.493338,-12.15522 15.035483,-61.74447 38.365567,-55.32371 12.0339,22.88221 -17.103954,47.26233 -13.837257,72.69824 C 83.770397,548.34032 72.970778,572.10301 70.67,600 Z M 310.09,0 c -0.0674,26.497474 -14.2324,54.404112 -44.61605,39.817719 -34.21499,8.56532 -68.1095,8.008685 -101.94733,1.309674 C 124.48987,46.517127 110.6113,84.055329 89.768116,109.39908 79.129436,127.10592 65.497097,152.50819 43.442578,166.45852 27.920437,200.24041 30.068643,241.6071 4.523374,270.71089 -4.2640557,287.33949 22.206407,248.34724 21.273889,239.714 32.637668,208.37468 30.134341,167.15056 62.432073,148.65879 78.56984,127.0548 89.241819,106.83028 106.05686,87.486717 116.66145,58.369771 148.34304,33.453994 180.80913,41.965205 215.19544,52.258944 249.48898,37.507739 284.32756,38.832929 313.30886,46.254025 298.62134,14.481553 310.09,0 Z m 25.12,0 c 10.57985,30.632032 -1.64129,80.865191 -42.79909,72.320814 -33.80135,1.845846 -68.06257,14.279799 -100.5116,-0.293067 -33.19711,-6.555871 -53.07195,19.708614 -62.31913,46.918853 -29.11246,16.29421 -49.095259,41.54875 -71.756551,67.87549 -16.003058,31.9453 -16.61403,71.06946 -40.047805,100.20191 -6.460956,9.95535 -24.0845921,26.65128 -7.404551,6.86492 33.676772,-32.93959 28.310098,-85.29152 56.290192,-121.39304 21.814105,-17.58299 39.897475,-45.95424 63.271175,-55.98364 6.38685,-35.684044 47.00482,-58.401027 79.47087,-40.019341 35.22871,3.300273 71.19016,-1.693604 105.2797,-8.606106 C 346.11765,56.560038 335.08733,24.86306 335.21,0 Z M 93.87,0 C 94.297419,33.72583 53.697966,49.040952 50.086929,82.266873 39.991389,110.67474 22.065886,136.53271 1.2041194,157.36477 19.206666,130.95841 44.653642,106.46926 49.833265,73.332495 58.516986,45.31568 90.513517,30.438288 93.87,0 Z m 9.07,0 C 99.103873,38.135396 56.663477,61.509361 60.349551,102.08803 53.729658,135.83203 25.879026,159.2756 0,179.21 26.787426,155.76111 60.820179,129.71555 59.624717,90.258789 64.400483,55.910358 97.251744,34.041495 102.94,0 Z M 83.71,0 C 72.664876,23.298282 21.651132,15.772203 37.377803,53.632305 35.046373,87.347884 16.132642,116.70365 0,145.35 26.538319,111.49554 36.46888,67.907909 38.33,25.7 49.974922,11.449891 76.882136,20.283595 83.71,0 Z m 282.63,0 c 7.20634,28.700961 9.47168,68.188701 -21.66666,83.815439 -36.12565,16.999471 -77.74611,15.264838 -116.72687,19.433791 -30.30703,-2.7453 -69.34918,-14.097854 -76.09624,27.3709 -20.46462,21.73093 -46.85679,36.65741 -67.4183,61.42341 C 60.441966,221.47988 64.475195,262.92141 48.550547,296.30292 44.105895,316.56293 12.87772,342.68966 5.5769414,340.2294 47.817828,323.00385 56.558333,273.08341 64.723972,233.40256 c 2.464552,-36.13758 36.444018,-55.71141 57.622668,-80.85511 24.20912,-10.71858 34.2413,-34.6483 47.37526,-52.23468 31.95013,-6.551658 64.52164,10.80429 96.51056,-2.394097 33.67859,-3.200441 76.04154,-0.953115 97.08323,-32.93366 C 374.22619,45.012096 368.74149,21.333493 366.34,0 Z M 18.88,0 C 3.5436378,30.16257 26.903279,67.099304 6.6716135,95.938074 -9.5943066,126.70254 24.454238,80.876245 14.836441,66.59851 11.379162,43.684561 9.8137811,21.813633 18.88,0 Z m 280.47,0 c -2.36505,38.300766 -42.25218,29.898838 -68.99018,33.109332 -33.10797,5.461782 -71.85808,-19.241925 -97.83073,11.877273 -9.54773,14.326073 -47.956358,37.250113 -31.98148,4.123929 6.52471,-8.819527 23.69761,-39.4035817 20.49195,-41.5902739 1.16499,22.5551869 -30.789157,43.1079699 -20.83983,61.1166729 26.39586,-14.622974 48.29282,-51.281317 83.88363,-39.683007 31.01143,9.417096 62.906,-2.070948 94.08813,0.988303 C 292.45375,27.852148 292.51646,9.649241 299.35,0 Z m -8.59,0 c -13.01375,38.160006 -63.98401,20.059226 -94.42297,23.29915 -21.01058,-7.087117 -52.63556,-0.432285 -67.11349,-3.620413 -0.33373,-15.9775472 7.8439,-24.6243342 2.36432,-3.87855 8.32971,13.220866 36.33001,-9.7902366 51.81893,4.432486 32.90285,-2.710691 89.06118,17.637795 105.30165,-18.9057076 z M 141.51,0 c 17.24661,19.880734 55.26903,7.3806899 80.56981,14.932201 16.9226,6.045911 61.09394,-9.2711455 56.65624,-11.1796239 C 253.89147,23.708134 217.86303,15.523206 188.56873,12.732487 178.54155,8.6685218 134.40957,15.994117 141.51,0 Z m 76.4,0 c 10.57338,6.2436068 52.98068,-2.6613041 21.90031,3.3089063 C 237.78489,4.8648525 209.74678,1.2106723 217.91,0 Z M 70.69,0 C 62.218692,17.99915 13.562646,-3.3458607 52.432602,6.487614 58.932813,5.8534775 65.199022,3.492993 70.69,0 Z M 0,207.87 c 31.211694,1.3085 -11.314824,75.06489 7.2029722,30.57668 C 9.8222784,228.79076 15.849951,209.24068 0,207.87 Z m 0,7.05 c 10.880752,12.80965 -5.5313091,40.84394 2.9279676,10.13242 C 3.3329735,221.60991 3.6427161,216.9597 0,214.92 Z M 0,410.9 C 13.724794,396.29979 13.045017,358.44198 4.9123771,360.94382 27.081369,369.07556 4.712377,397.55164 0,410.9 Z M 33.64,452 c 26.051059,-12.12809 27.368823,14.30433 7.774833,23.08037 C 38.620266,497.84359 10.760496,521.36048 8.66125,484.15453 3.3463007,468.07052 14.170146,445.7055 33.64,452 Z m 0,2 C -4.0422718,439.89154 10.987885,523.85433 28.093339,498.99402 31.040108,480.39474 51.135313,463.24622 54.44273,451.51329 47.39656,449.79423 40.701534,454.42106 33.64,454 Z m 345.63,146 c -10.09003,-24.13339 -8.7816,-65.87326 27.75336,-55.27662 22.00578,9.48652 28.54625,51.09735 58.51814,34.27234 17.49755,-30.57529 61.90528,-27.4395 79.0685,-58.30572 38.43543,-23.53608 47.77742,40.81387 48.08379,67.29183 0.29189,22.9232 -3.40881,-27.92966 -6.06556,-36.22975 0.45302,-33.22805 -37.72968,-48.81434 -52.6197,-16.64077 -26.7208,14.05011 -51.90282,28.76421 -76.26017,47.63945 -30.80181,6.52007 -32.82949,-44.05695 -63.16635,-36.59181 C 362.67729,541.70266 379.37839,582.91109 379.27,600 Z m 13.68,0 c -8.79365,-16.62112 5.20415,-56.97743 22.765,-27.42 14.12118,41.10411 66.08578,25.91659 84.22442,-3.00392 20.99199,-5.86004 43.74776,-21.8025 60.98629,-25.28156 16.00163,11.03966 6.22637,76.40955 8.88484,31.09356 3.49448,-20.45352 -18.93979,-45.30047 -32.41805,-18.82558 -36.83506,1.19586 -56.12035,45.11734 -92.2505,44.31792 -18.99833,-1.71174 -40.60284,-54.73905 -51.85378,-28.00605 -0.68831,9.02516 -0.53066,18.08521 -0.33822,27.12563 z m 113.75,0 c 5.2462,-30.27437 55.35335,-32.24119 40.6462,-4.86342 C 551.08918,547.22799 519.84274,584.06876 506.7,600 Z m -9.86,-338.96 c 35.64069,4.71208 47.43181,59.91123 4.16186,61.73323 -30.53487,21.75885 -63.85303,11.9147 -88.84922,-12.1291 -40.59965,-26.72099 15.39591,-51.82423 31.74346,-73.53885 25.82196,-22.76617 42.09214,2.87734 52.9439,23.93472 z m -3.49,-0.28 c -5.39836,-38.07011 -53.49118,-35.17489 -66.27016,-3.47282 -20.93796,11.8444 -42.85127,41.61813 -10.07039,54.28178 27.57363,29.90791 66.52937,21.47217 97.54345,5.92281 C 545.74097,296.18881 517.57827,269.48448 493.35,260.76 Z M 87.72,241.6 c 32.28806,-17.15093 64.21339,-35.51012 98.88234,-47.53531 37.83259,-3.34758 64.28076,37.51635 56.79891,72.10846 -10.85822,35.03262 -54.74053,39.79921 -73.06236,69.47972 -28.35492,36.94054 -67.14958,67.36638 -111.473464,82.57659 C 35.17118,432.23113 4.72457,415.72736 20.644967,386.7892 26.893727,362.58066 9.0871185,341.67747 36.397244,325.25767 69.698424,304.3852 50.206819,255.89646 87.72,241.6 Z m 0.56,0.82 c -34.374599,12.21208 -20.13553,58.94534 -46.669459,78.65878 -23.972117,14.80314 -23.733518,41.11042 -19.442969,62.61383 -14.9800584,27.52518 9.726068,52.07604 36.371976,33.41166 48.634112,-15.69995 88.111542,-51.17408 118.454892,-91.19652 20.54793,-24.57028 65.53933,-31.36267 65.98085,-69.33176 2.72372,-31.42606 -22.86021,-65.57606 -56.61447,-60.49807 -30.47937,7.07517 -56.6276,26.65658 -85.1117,39.37717 -4.338005,2.29361 -8.662215,4.61338 -12.96912,6.96491 z m -7.6,12.2 c 29.99377,-17.34729 64.75879,-25.26169 94.32455,-43.09851 34.10984,-5.63843 69.85922,43.50127 37.19679,68.26866 -33.24732,18.22483 -51.60153,47.68227 -74.05205,76.75418 -26.39551,17.85053 -55.104201,56.56756 -90.367249,43.31006 C 47.14479,376.55651 8.0766148,343.86566 45.72629,328.99913 70.1396,310.96571 53.947078,270.86587 80.68,254.62 Z m 0.64,0.78 c -28.007056,19.71946 -9.259115,67.90096 -46.120495,81.34636 -16.528848,22.87051 13.8498,39.22148 13.891646,62.4434 30.095022,13.73205 57.139539,-24.12031 81.981899,-38.258 27.95493,-19.13555 33.48802,-61.23161 68.9642,-71.44091 35.52536,-17.06077 27.45409,-67.68363 -9.24139,-76.75134 -29.05391,0.41681 -53.15272,21.39118 -80.97065,28.68362 C 100.05209,245.4936 90.427808,249.9841 81.32,255.4 Z M 212,251.85 c -0.64597,37.11345 -53.21848,39.62849 -58.20866,77.10933 -20.77829,27.32725 -62.671487,47.6601 -94.007214,26.78005 -32.868345,-15.24543 14.614367,-45.88917 10.189754,-71.39711 9.011539,-40.21588 58.04275,-30.26286 83.7207,-53.62075 C 176.79686,210.78952 208.93344,218.77916 212,251.85 Z m -2,0 c -2.48644,-42.70711 -53.06127,-28.58418 -73.42754,-9.91329 -29.39879,13.19553 -69.909753,17.969 -69.354023,59.77565 -10.044913,24.13006 -32.191672,56.26142 10.846315,58.61136 39.071938,8.85277 77.349868,-24.93018 87.777758,-60.27883 C 182.68289,286.69475 211.02626,278.00936 210,251.85 Z m -37.18,-22.4 c 42.97501,-11.555 34.205,61.74814 -4.66581,53.91981 -22.34282,22.90707 -27.39675,65.2611 -66.7135,68.18057 -27.093395,7.65898 -42.510423,-18.81188 -29.02486,-40.15354 -4.045569,-36.27772 30.89086,-47.21366 55.74839,-56.09216 14.11707,-9.9211 30.66039,-15.73188 44.65578,-25.85468 z m -14.52,8.34 c -20.31742,25.81486 -68.599876,20.0796 -78.720772,51.40069 -10.049558,23.85145 -19.543908,73.02405 22.881022,60.64952 34.64268,-4.1771 43.62241,-39.1958 60.54346,-63.08745 17.93822,-11.67414 55.95187,-21.1047 33.39785,-49.84547 C 186.76962,224.48513 167.48612,225.32126 158.3,237.79 Z m -42.39,32.72 c 41.73411,-15.89402 40.73424,44.98953 13.53413,60.43698 C 100.62225,363.16 59.869949,336.43816 82.6794,299.10474 84.25955,281.63798 96.046699,264.71592 115.91,270.51 Z m 0.18,0.98 c -34.667613,-6.65014 -49.567428,59.47579 -25.68969,73.0003 31.85939,3.36803 71.32813,-39.93527 53.73214,-69.33901 C 136.30407,268.87212 125.28569,268.48406 116.09,271.49 Z M 132,276.5 c 32.25281,19.71823 -23.74175,79.78509 -45.474624,51.22971 C 75.569821,297.76125 100.00151,266.90411 132,276.5 Z m 0,1 c -30.27629,-11.28036 -55.367866,23.92463 -44.331952,51.12149 23.200042,21.9766 70.578772,-29.83321 47.989212,-51.00239 z m -17.79,7 c 46.27179,0.47964 -21.486454,60.75382 -16.71,16.43 0.693019,-8.55365 8.16565,-15.84712 16.71,-16.43 z m -0.6,1.08 c -31.267247,4.06176 -6.37848,49.41378 11.65853,22.57086 C 137.06222,298.06738 127.29752,283.036 113.61,285.58 Z m 80.87,-23.45 c -17.089,27.36623 -57.79824,-21.64385 -18.89447,-27.11736 15.87014,-5.59998 25.68921,14.67431 18.89447,27.11736 z m -20.83,-24.98 c -38.54566,9.52191 19.55925,55.8296 21.76349,16.42539 C 196.6786,241.93013 185.31945,229.83573 173.65,237.15 Z m 17.85,12.15 c -8.23557,30.2575 -36.28092,-14.43306 -8.27857,-9.00724 5.96233,-0.90853 8.08084,4.62156 8.27857,9.00724 z m -1,0 c -17.23041,-29.67947 -27.52492,30.43532 -0.22352,2.90042 z m 196.5,281 c 0.31344,-38.65349 54.31638,-33.23337 63.82176,-65.2193 14.45754,-31.93946 51.18711,-52.25979 80.40603,-26.5665 17.37546,13.89776 69.54419,-15.03516 52.78894,19.16527 -14.60888,7.30018 -35.22576,18.46322 -12.80884,32.22346 -2.63736,21.37514 -41.83997,12.56218 -45.72078,38.36829 -21.47929,14.48376 -46.28232,23.67007 -64.79359,41.94916 -29.67719,10.8156 -8.07462,-38.33789 -38.40049,-23.88908 C 428.63552,507.75499 391.40847,557.0968 387,530.3 Z m 2,0 c 10.39483,12.399 43.83214,-13.09785 37.29,16.02 23.1935,-20.22484 13.36156,47.43168 38.83343,17.78788 17.74931,-18.75272 44.59612,-23.96445 62.60474,-41.54219 8.41382,-17.30318 31.78698,-23.92429 42.27796,-29.47153 -11.7357,-13.15061 -18.83268,-30.85477 5.80083,-29.87154 20.14832,-12.39608 0.43381,-34.18978 -15.40461,-18.46784 -29.5668,8.3513 -52.57988,-31.51928 -79.32215,-11.0862 -26.36822,20.49561 -36.15655,57.82272 -71.61054,66.42335 C 398.6921,506.44446 388.78729,516.99909 389,530.3 Z m 133.22,-79.76 c 10.37711,1.53532 49.04697,-5.18162 26.47125,13.15625 3.03393,17.32054 20.70687,37.52236 -8.86444,36.91377 -14.84159,23.41468 -41.9428,27.16878 -59.20573,44.944 -11.60966,15.43043 -38.64687,11.6582 -33.19608,-11.63152 -16.61362,3.24511 -21.24022,-23.04252 -39.22275,-13.45832 -5.04464,-27.92671 47.80394,-25.56037 52.20059,-54.63821 C 474.78297,446.28902 504.0084,420.23461 522.22,450.54 Z m -0.44,0.9 c -21.20469,-31.61154 -59.74158,3.69904 -67.29111,28.77093 -11.86352,14.35941 -55.04636,22.31871 -45.89259,40.43923 15.24447,-6.6197 26.4431,5.23942 30.28246,10.75003 16.61983,0.62683 16.65821,43.52769 35.70116,14.692 29.31819,-15.46221 53.72173,-38.49417 81.70386,-52.35139 4.11985,-12.40834 -21.65665,-24.47835 -1.90103,-39.98217 -3.10545,-9.98182 -24.64177,5.4376 -32.60275,-2.31863 z m -28,-3.9 c 25.37701,-0.51813 73.77285,26.47097 38.87889,50.2801 -20.7963,13.53064 -51.98163,38.84432 -71.41077,38.05022 -12.04173,-11.29117 -43.22755,-32.04734 -10.44234,-41.72188 19.18178,-10.99195 19.9756,-40.34685 42.97422,-46.60844 z m -22.34,21.7 c -4.13016,22.42185 -60.71537,38.66948 -17.02835,56.80628 15.73757,28.51244 43.34637,-14.53962 65.88292,-20.28515 26.50011,-7.98242 33.49538,-42.91613 2.71199,-49.90441 C 503.4138,448.75906 484.45283,442.47671 471.44,469.24 Z m 55.86,11.93 c -8.27968,29.41985 -50.83055,5.48852 -22.6195,-12.05216 8.37309,-8.9672 26.6232,-0.19114 22.6195,12.05216 z m -0.9,-0.42 c -3.37064,-42.91105 -55.43472,25.25295 -14.20258,11.64355 5.5107,-2.71047 11.02449,-6.19511 14.20258,-11.64355 z m -69.67,20.74 c 24.82449,14.874 -24.31484,9.07874 0,0 z m -0.09,1 c -25.83627,12.82132 23.69418,8.37956 0,0 z m 29.59,-225.95 c 27.27119,2.37375 41.50903,38.38929 5.52924,41.20194 -28.87149,16.1789 -61.69969,1.1286 -81.92121,-20.30077 0.6982,-25.10167 43.29561,-63.08396 64.97504,-30.27772 3.78078,3.15558 7.57144,6.29986 11.41693,9.37655 z m -0.46,0.9 c -16.45509,-16.72492 -42.37123,-36.01241 -58.1997,-7.52709 -20.74598,10.04252 -23.30656,34.46585 0.93022,41.09522 23.78667,22.99577 71.16274,11.68218 87.48876,-12.78669 C 510.70271,286.51343 496.02421,283.20382 485.77,277.44 Z m -38.83,8.05 c 35.37152,-3.91867 49.79696,38.29436 5.51882,30.1504 C 437.3304,312.43761 420.34859,286.94527 446.94,285.49 Z m 0.12,1 c -40.8509,17.56316 42.801,48.09655 34.87195,12.57555 C 471.8878,291.4393 458.87139,289.82498 447.06,286.49 Z M 202.5,500.38 c -5.62425,32.57569 -56.78956,-16.28218 -17.73238,-12.3532 5.2603,4.76217 19.45262,1.64521 17.73238,12.3532 z m -1,0 c -16.36332,-32.17434 -51.99685,12.70007 -7.97044,9.13441 4.66865,-0.16475 8.87143,-4.22926 7.97044,-9.13441 z m 33.33,-117.85 c 36.20006,-10.47734 79.8181,-14.22771 102.44871,-48.73608 7.74828,-21.36568 41.46013,-39.31223 52.70363,-12.60237 -19.17131,15.04395 -20.14678,36.51239 -30.21063,55.08692 -28.29829,15.91691 -59.01926,28.1491 -90.19873,37.65702 -19.70941,0.74993 -69.35089,37.981 -68.51444,1.20985 8.85298,-12.3042 19.76247,-26.46097 33.77146,-32.61534 z m 0.34,0.94 c -20.35122,8.09834 -54.63305,51.90383 -10.67469,44.76976 31.94997,-12.70983 65.54375,-19.56343 96.65054,-34.17813 28.31969,-9.03792 50.06387,-24.25548 53.44086,-55.56211 11.70586,-13.85411 20.81635,-26.04174 -4.03053,-29.76606 -31.69413,0.68534 -35.84159,48.28063 -68.74339,55.93362 C 280.8275,374.54962 256.9481,375.67557 235.17,383.47 Z M 252,387.5 c 30.33422,-10.03825 12.02961,25.24096 -6.09984,24.19007 -12.05942,14.7142 -54.01648,14.07363 -25.17703,-8.69427 C 228.6374,394.35341 238.9967,383.84123 252,387.5 Z m 0,1 C 229.4107,377.40463 191.73873,437.01046 231.80172,416.85466 243.70577,413.04681 295.1517,386.79041 252,388.5 Z m 112.47,-45.34 c 12.89423,28.01291 -34.47044,41.53205 -25.01184,6.14238 -4.29669,-22.41384 39.67696,-50.2465 41.6152,-24.38556 -5.07548,6.4631 -13.99843,9.9373 -16.60336,18.24318 z m -0.94,-0.32 c 16.8264,-10.86288 22.49965,-34.46045 -4.15661,-25.10522 -23.70072,7.57191 -28.25663,67.89209 2.71221,48.69947 2.29911,-7.72339 -2.53394,-16.20485 1.4444,-23.59425 z m -9.26,12.42 c 13.03343,18.01868 -20.06203,2.4989 -1.15217,-0.91895 z m -1.34,1.48 c -11.80535,2.78368 10.49015,11.05332 0,0 z m 222.9,-130.19 c 43.67169,-27.98929 7.50145,67.854 -12.71988,39.77236 C 552.63575,251.46056 550.02844,224.89565 575.83,226.55 Z m 0.44,0.9 c -37.32531,-7.15382 -12.04133,72.74713 8.78889,31.78899 10.764,-13.0648 22.92255,-50.9248 -8.78889,-31.78899 z m -4.5,6.58 c 38.38428,-25.36259 2.21393,57.40229 -9.38812,11.82986 -3.52387,-6.80883 2.54225,-13.30266 9.38812,-11.82986 z m -2.1,2.3 c -20.1621,17.54671 23.3793,33.90873 18.86642,2.22542 C 593.06419,223.7821 575.16604,235.53137 569.67,236.33 Z M 341.94,147.35 c -11.68232,20.76491 -41.05997,65.47191 -65.08754,38.13301 -9.25714,-16.9607 -68.99641,-32.76972 -27.38573,-40.0035 31.22785,3.89546 58.0337,-7.95122 85.71603,-17.61102 11.306,0.0276 10.78679,12.48319 6.75724,19.48151 z m -1.88,-0.7 c -0.54993,-39.30708 -45.49218,13.43895 -68.46102,-0.70991 -15.32548,-3.12859 -54.05442,9.18755 -19.29566,15.48357 16.83483,22.21924 47.06397,45.85986 68.19102,13.98803 7.41404,-8.96268 12.5775,-19.49412 19.56566,-28.76169 z m -6.64,-0.39 c -0.57603,21.60323 -59.88843,35.98628 -38.21609,9.384 8.56241,-2.26335 41.44238,-34.99859 38.21609,-9.384 z m -0.84,-0.52 c -6.31506,-18.37163 -37.48761,11.71177 -43.6426,18.8295 7.92632,18.63462 38.63432,-7.74096 43.6426,-18.8295 z M 461.17,33.53 c 23.53562,21.558954 68.27435,-43.3864648 71.68653,8.072777 8.59646,29.05022 -10.43057,55.802845 -36.38595,57.68576 -21.68173,18.002173 -51.95938,24.294923 -75.81425,38.118953 -25.93046,1.47904 -71.3021,-20.69229 -33.57087,-44.130219 34.38743,-9.711168 34.07735,-60.114768 68.03931,-62.478744 z m -0.34,0.94 C 421.66384,24.134736 424.72485,87.251872 388.3113,92.381992 367.99647,102.52883 370.28137,135.53852 397.24,129.57 427.71012,150.70419 457.23801,111.47943 486.26785,105.70675 506.23447,88.544069 539.39853,89.280352 533.06304,54.210354 540.43237,29.183333 515.94706,8.4015452 497.35283,32.351915 486.3769,38.629332 472.35346,40.484384 460.83,34.47 Z M 475,55 c 18.90453,3.626873 51.55452,-41.920027 49.75195,1.090794 -9.85641,32.0154 -50.52317,36.361014 -75.08244,53.474336 -15.11069,20.56624 -75.67973,19.5289 -52.36167,-14.018848 21.41163,-12.602323 36.00125,-32.573501 47.60608,-51.24218 C 456.08643,44.139551 463.40981,57.024771 475,55 Z m 0,2 C 456.75142,46.881427 430.79101,44.685275 429.14927,71.266309 409.99933,82.940005 369.92592,121.90616 416.80743,121.64504 449.05238,112.26074 477.33589,92.965405 506.77982,77.385015 533.13138,68.387252 522.73597,17.036927 498.2607,49.28906 491.65212,54.189773 483.54946,58.54623 475,57 Z m -12.7,8.6 c 12.30299,-0.439256 45.89813,1.315176 20.24775,13.769411 -22.84374,3.629757 -51.90366,42.813719 -71.05304,20.965899 12.98826,-14.481194 30.69506,-31.047673 38.5589,-44.795175 4.78025,2.47456 7.50586,7.488466 12.24639,10.059865 z m -0.6,0.8 C 439.1168,42.384351 428.84874,97.931932 412.82713,101.98466 433.50625,117.21425 459.81819,81.962503 482.73856,79.938778 507.92912,56.714407 470.84509,74.872616 461.7,66.4 Z"
     id="path86" />
</svg>
